HIERARCHY
ROOT Hips
{
	OFFSET 0.000000 83.214638 0.000000
	CHANNELS 6 Xposition Yposition Zposition Xrotation Yrotation Zrotation
	JOINT Pelvis
	{
		OFFSET 0.000000 0.000000 0.000000
		CHANNELS 3 Xrotation Yrotation Zrotation
		JOINT LeftUpLeg
		{
			OFFSET 8.479700 -4.795502 -0.379100
			CHANNELS 3 Xrotation Yrotation Zrotation
			JOINT LeftLeg
			{
				OFFSET 0.024144 -32.555107 0.112900
				CHANNELS 3 Xrotation Yrotation Zrotation
				JOINT LeftFoot
				{
					OFFSET -0.024144 -32.638630 -3.012600
					CHANNELS 3 Xrotation Yrotation Zrotation
					JOINT LeftToeBase
					{
						OFFSET 0.970200 -13.225400 11.864200
						CHANNELS 3 Xrotation Yrotation Zrotation
						End Site
						{
							OFFSET 0.000000 12.319262 0.000000
						}
					}
					JOINT LFootTongue
					{
						OFFSET 1.142400 -1.059800 6.665200
						CHANNELS 3 Xrotation Yrotation Zrotation
						End Site
						{
							OFFSET 0.000000 12.319262 0.000000
						}
					}
				}
				JOINT LeftPantLeg
				{
					OFFSET 0.918482 -16.533964 -2.284700
					CHANNELS 3 Xrotation Yrotation Zrotation
					End Site
					{
						OFFSET 0.350399 24.744368 0.000000
					}
				}
			}
		}
		JOINT RightUpLeg
		{
			OFFSET -8.479700 -4.795502 -0.379100
			CHANNELS 3 Xrotation Yrotation Zrotation
			JOINT RightLeg
			{
				OFFSET -0.023144 -32.555092 0.112900
				CHANNELS 3 Xrotation Yrotation Zrotation
				JOINT RightFoot
				{
					OFFSET 0.023144 -32.638641 -3.012700
					CHANNELS 3 Xrotation Yrotation Zrotation
					JOINT RightToeBase
					{
						OFFSET -0.970200 -13.225400 11.864200
						CHANNELS 3 Xrotation Yrotation Zrotation
						End Site
						{
							OFFSET 0.000000 12.319244 0.000000
						}
					}
					JOINT RFootTongue
					{
						OFFSET -1.142200 -1.059800 6.665200
						CHANNELS 3 Xrotation Yrotation Zrotation
						End Site
						{
							OFFSET 0.000000 12.319243 0.000000
						}
					}
				}
				JOINT RightPantLeg
				{
					OFFSET -0.919482 -16.533978 -2.284800
					CHANNELS 3 Xrotation Yrotation Zrotation
					End Site
					{
						OFFSET -0.350400 24.744419 0.000000
					}
				}
			}
		}
	}
	JOINT Spine
	{
		OFFSET 0.000000 7.722000 1.166200
		CHANNELS 3 Xrotation Yrotation Zrotation
		JOINT Spine1
		{
			OFFSET 0.000000 12.024101 0.248800
			CHANNELS 3 Xrotation Yrotation Zrotation
			JOINT Spine2
			{
				OFFSET 0.000000 11.502998 -0.491200
				CHANNELS 3 Xrotation Yrotation Zrotation
				JOINT Neck
				{
					OFFSET 0.000000 18.430702 -3.123100
					CHANNELS 3 Xrotation Yrotation Zrotation
					JOINT Head
					{
						OFFSET 0.000000 9.051102 1.034000
						CHANNELS 3 Xrotation Yrotation Zrotation
						JOINT HairB
						{
							OFFSET 0.208400 24.786102 24.822300
							CHANNELS 3 Xrotation Yrotation Zrotation
							End Site
							{
								OFFSET 0.000000 32.263779 0.000000
							}
						}
						JOINT HairA
						{
							OFFSET -7.081100 24.428299 23.196600
							CHANNELS 3 Xrotation Yrotation Zrotation
							End Site
							{
								OFFSET 0.000000 32.263779 0.000000
							}
						}
						JOINT Hat
						{
							OFFSET 16.728800 15.048294 -15.439601
							CHANNELS 3 Xrotation Yrotation Zrotation
							End Site
							{
								OFFSET 0.000000 32.263779 0.000000
							}
						}
					}
				}
				JOINT LeftShoulder
				{
					OFFSET 6.197800 13.665199 -4.064700
					CHANNELS 3 Xrotation Yrotation Zrotation
					JOINT LeftArm
					{
						OFFSET 7.778100 -0.187103 -1.709300
						CHANNELS 3 Xrotation Yrotation Zrotation
						JOINT LeftForeArm
						{
							OFFSET 22.049376 0.000000 0.000000
							CHANNELS 3 Xrotation Yrotation Zrotation
							JOINT LeftHand
							{
								OFFSET 23.009392 0.000000 0.000000
								CHANNELS 3 Xrotation Yrotation Zrotation
								JOINT LeftHandThumb1
								{
									OFFSET 3.507191 -2.063065 3.133727
									CHANNELS 3 Xrotation Yrotation Zrotation
									JOINT LeftHandThumb2
									{
										OFFSET 3.101337 -1.790558 1.790558
										CHANNELS 3 Xrotation Yrotation Zrotation
										JOINT LeftHandThumb3
										{
											OFFSET 3.058640 -1.765907 1.765906
											CHANNELS 3 Xrotation Yrotation Zrotation
											End Site
											{
												OFFSET -0.415260 3.926476 -0.049563
											}
										}
									}
								}
								JOINT LeftHandIndex1
								{
									OFFSET 11.334419 -0.901459 3.706815
									CHANNELS 3 Xrotation Yrotation Zrotation
									JOINT LeftHandIndex2
									{
										OFFSET 3.283112 0.000000 0.000000
										CHANNELS 3 Xrotation Yrotation Zrotation
										JOINT LeftHandIndex3
										{
											OFFSET 3.323853 0.000000 0.000000
											CHANNELS 3 Xrotation Yrotation Zrotation
											End Site
											{
												OFFSET -1.135597 3.097809 0.402452
											}
										}
									}
								}
								JOINT LeftHandMiddle1
								{
									OFFSET 11.335861 0.000000 0.000000
									CHANNELS 3 Xrotation Yrotation Zrotation
									JOINT LeftHandMiddle2
									{
										OFFSET 3.410492 0.000000 0.000000
										CHANNELS 3 Xrotation Yrotation Zrotation
										JOINT LeftHandMiddle3
										{
											OFFSET 3.312172 0.000000 0.000000
											CHANNELS 3 Xrotation Yrotation Zrotation
											End Site
											{
												OFFSET -1.150200 3.080154 0.400270
											}
										}
									}
								}
								JOINT LeftHandRing1
								{
									OFFSET 11.514786 -0.013176 -3.003090
									CHANNELS 3 Xrotation Yrotation Zrotation
									JOINT LeftHandRing2
									{
										OFFSET 3.053307 0.000000 0.000000
										CHANNELS 3 Xrotation Yrotation Zrotation
										JOINT LeftHandRing3
										{
											OFFSET 3.295807 0.000000 0.000000
											CHANNELS 3 Xrotation Yrotation Zrotation
											End Site
											{
												OFFSET -1.281006 3.013344 0.375733
											}
										}
									}
								}
								JOINT LeftHandPinky1
								{
									OFFSET 10.518692 -0.960396 -5.730441
									CHANNELS 3 Xrotation Yrotation Zrotation
									JOINT LeftHandPinky2
									{
										OFFSET 2.861649 0.000000 0.000000
										CHANNELS 3 Xrotation Yrotation Zrotation
										JOINT LeftHandPinky3
										{
											OFFSET 2.863380 0.000000 0.000000
											CHANNELS 3 Xrotation Yrotation Zrotation
											End Site
											{
												OFFSET -0.843597 2.711159 0.369971
											}
										}
									}
								}
							}
							JOINT LSleeve
							{
								OFFSET 6.676277 -0.344902 -1.011730
								CHANNELS 3 Xrotation Yrotation Zrotation
								End Site
								{
									OFFSET 0.000000 14.885353 0.000000
								}
							}
						}
					}
				}
				JOINT RightShoulder
				{
					OFFSET -6.197800 13.665199 -4.064700
					CHANNELS 3 Xrotation Yrotation Zrotation
					JOINT RightArm
					{
						OFFSET -7.778100 -0.187103 -1.709300
						CHANNELS 3 Xrotation Yrotation Zrotation
						JOINT RightForeArm
						{
							OFFSET -22.049376 0.000000 0.000000
							CHANNELS 3 Xrotation Yrotation Zrotation
							JOINT RightHand
							{
								OFFSET -23.009392 0.000000 0.000000
								CHANNELS 3 Xrotation Yrotation Zrotation
								JOINT RightHandThumb1
								{
									OFFSET -3.507191 -2.063065 3.133727
									CHANNELS 3 Xrotation Yrotation Zrotation
									JOINT RightHandThumb2
									{
										OFFSET -3.101337 -1.790558 1.790558
										CHANNELS 3 Xrotation Yrotation Zrotation
										JOINT RightHandThumb3
										{
											OFFSET -3.058640 -1.765907 1.765906
											CHANNELS 3 Xrotation Yrotation Zrotation
											End Site
											{
												OFFSET 0.415260 3.926476 -0.049563
											}
										}
									}
								}
								JOINT RightHandIndex1
								{
									OFFSET -11.334419 -0.901459 3.706815
									CHANNELS 3 Xrotation Yrotation Zrotation
									JOINT RightHandIndex2
									{
										OFFSET -3.283112 0.000000 0.000000
										CHANNELS 3 Xrotation Yrotation Zrotation
										JOINT RightHandIndex3
										{
											OFFSET -3.323853 0.000000 0.000000
											CHANNELS 3 Xrotation Yrotation Zrotation
											End Site
											{
												OFFSET 1.135597 3.097809 0.402452
											}
										}
									}
								}
								JOINT RightHandMiddle1
								{
									OFFSET -11.335861 0.000000 0.000000
									CHANNELS 3 Xrotation Yrotation Zrotation
									JOINT RightHandMiddle2
									{
										OFFSET -3.410492 0.000000 0.000000
										CHANNELS 3 Xrotation Yrotation Zrotation
										JOINT RightHandMiddle3
										{
											OFFSET -3.312172 0.000000 0.000000
											CHANNELS 3 Xrotation Yrotation Zrotation
											End Site
											{
												OFFSET 1.150200 3.080154 0.400270
											}
										}
									}
								}
								JOINT RightHandRing1
								{
									OFFSET -11.514786 -0.013176 -3.003090
									CHANNELS 3 Xrotation Yrotation Zrotation
									JOINT RightHandRing2
									{
										OFFSET -3.053307 0.000000 0.000000
										CHANNELS 3 Xrotation Yrotation Zrotation
										JOINT RightHandRing3
										{
											OFFSET -3.295807 0.000000 0.000000
											CHANNELS 3 Xrotation Yrotation Zrotation
											End Site
											{
												OFFSET 1.281006 3.013344 0.375733
											}
										}
									}
								}
								JOINT RightHandPinky1
								{
									OFFSET -10.518692 -0.960396 -5.730441
									CHANNELS 3 Xrotation Yrotation Zrotation
									JOINT RightHandPinky2
									{
										OFFSET -2.861649 0.000000 0.000000
										CHANNELS 3 Xrotation Yrotation Zrotation
										JOINT RightHandPinky3
										{
											OFFSET -2.863380 0.000000 0.000000
											CHANNELS 3 Xrotation Yrotation Zrotation
											End Site
											{
												OFFSET 0.843597 2.711159 0.369971
											}
										}
									}
								}
							}
							JOINT RSleeve
							{
								OFFSET -6.676277 -0.344902 -1.011730
								CHANNELS 3 Xrotation Yrotation Zrotation
								End Site
								{
									OFFSET 0.000000 14.885353 0.000000
								}
							}
						}
					}
				}
				JOINT Backpack
				{
					OFFSET 0.000000 -2.471497 36.677502
					CHANNELS 3 Xrotation Yrotation Zrotation
					End Site
					{
						OFFSET 0.000000 20.427315 0.000000
					}
				}
				JOINT Hood
				{
					OFFSET 0.000000 18.754097 -10.431000
					CHANNELS 3 Xrotation Yrotation Zrotation
					JOINT Hood1
					{
						OFFSET 0.000000 -5.011002 -7.685901
						CHANNELS 3 Xrotation Yrotation Zrotation
						End Site
						{
							OFFSET 0.000000 9.175140 0.000000
						}
					}
				}
				JOINT LHoodieString
				{
					OFFSET 5.250500 16.397697 3.089900
					CHANNELS 3 Xrotation Yrotation Zrotation
					JOINT LHoodieString1
					{
						OFFSET 0.257700 -6.364304 3.694600
						CHANNELS 3 Xrotation Yrotation Zrotation
						JOINT LHoodieString2
						{
							OFFSET 0.000000 -9.643799 2.679100
							CHANNELS 3 Xrotation Yrotation Zrotation
							End Site
							{
								OFFSET 0.000000 10.009018 0.000000
							}
						}
					}
				}
				JOINT RHoodieString
				{
					OFFSET -5.250500 16.397697 3.089900
					CHANNELS 3 Xrotation Yrotation Zrotation
					JOINT RHoodieString1
					{
						OFFSET -0.257700 -6.364304 3.694600
						CHANNELS 3 Xrotation Yrotation Zrotation
						JOINT RHoodieString2
						{
							OFFSET 0.000000 -9.643799 2.679100
							CHANNELS 3 Xrotation Yrotation Zrotation
							End Site
							{
								OFFSET 0.000000 10.009018 0.000000
							}
						}
					}
				}
			}
			JOINT LBackpack_Strap
			{
				OFFSET 15.223200 -7.719803 -6.610900
				CHANNELS 3 Xrotation Yrotation Zrotation
				End Site
				{
					OFFSET 0.000000 16.040596 0.000000
				}
			}
			JOINT RBackpack_Strap
			{
				OFFSET -15.223000 -7.719803 -6.610900
				CHANNELS 3 Xrotation Yrotation Zrotation
				End Site
				{
					OFFSET 0.000000 16.040596 0.000000
				}
			}
		}
	}
	JOINT BoyFacialAnim_Joint
	{
		OFFSET 1.000000 -82.208099 -1.550900
		CHANNELS 3 Xrotation Yrotation Zrotation
		End Site
		{
			OFFSET 0.000000 30.012791 0.000000
		}
	}
}
MOTION
Frames: 4
Frame Time: 0.016667
-0.271842 70.610146 0.107373 -5.398751 -46.239373 -0.142883 -0.000000 0.000000 0.000000 -32.843508 7.601271 17.499498 59.220418 -6.566094 4.270672 -23.771596 -8.053172 -14.613682 -0.000000 -0.000000 -0.000000 -0.000000 -0.000000 -0.000000 0.000002 -0.000003 0.000000 -25.065088 -10.545486 -28.270300 58.419837 -9.124114 -7.671479 -25.367410 -6.319661 22.025524 -0.000000 0.000000 0.000000 -0.000000 0.000000 0.000000 -0.000001 -0.000001 0.000000 9.464573 7.182612 -1.715472 2.187716 0.989899 -0.915630 2.202828 0.982777 -0.894153 0.084653 13.220557 4.538682 8.920926 20.138140 -4.130233 0.000000 0.000000 0.000000 0.000000 0.000000 0.000000 0.000000 0.000000 0.000000 1.117176 3.546349 -8.633310 -53.487017 4.935504 -51.503004 0.000157 -106.358087 0.000143 1.988607 -7.706152 -15.869236 -6.141211 -11.690800 -6.761701 9.914140 42.595515 3.409862 -0.000001 -0.000001 0.000001 0.255316 3.378225 -45.814331 5.654098 5.847766 -88.067462 -0.000002 0.000000 -0.000002 -0.461473 3.841591 -39.722690 6.450755 5.820352 -95.892857 -0.000001 -0.000000 -0.000005 0.469724 4.966819 -39.799447 8.181037 5.368629 -113.502991 -0.000000 -0.000003 0.000001 -3.762422 9.063694 -45.253825 5.342543 5.829027 -85.005324 -0.000001 0.000002 -0.000003 0.000001 0.000001 0.000001 3.036127 13.027198 -5.371407 -48.713725 27.172818 83.457098 0.000109 105.988246 -0.000122 -8.345369 17.548107 8.775689 -7.341091 13.749665 7.412327 9.855808 -44.489086 -3.903234 -0.000001 0.000001 0.000002 -0.124367 -2.384800 45.108868 4.500589 -4.654552 88.071150 -0.000002 -0.000000 0.000002 -0.761617 -2.932909 39.031072 5.133888 -4.632764 95.881629 -0.000002 -0.000002 -0.000002 0.154765 -4.068813 39.122675 6.509731 -4.273608 113.462870 0.000001 0.000002 0.000002 -4.198870 -8.025510 44.637783 4.252923 -4.639649 85.014798 0.000000 -0.000001 -0.000002 0.000000 -0.000000 0.000002 -0.000000 -0.000002 0.000000 -0.000000 -0.000002 0.000000 -0.000000 -0.000002 0.000000 -0.000000 -0.000002 0.000000 -0.000000 -0.000002 0.000000 -0.000000 -0.000000 -0.000000 -0.000000 -0.000002 0.000000 -0.000000 -0.000002 0.000000 -0.000000 -0.000000 -0.000000 -0.000000 -0.000000 0.000000 -0.000000 -0.000000 0.000000 -0.000000 0.000000 0.000000 
-0.360897 70.479584 0.606373 -5.368663 -46.060060 0.066207 0.000000 -0.000001 0.000000 -32.784102 7.778061 17.316741 59.836180 -6.357063 4.072000 -24.470160 -8.521300 -14.368515 -0.000000 0.000002 0.000000 -0.000000 0.000002 0.000000 0.000001 -0.000002 0.000002 -25.073334 -10.553971 -28.802775 58.830202 -9.606924 -7.746999 -25.605157 -6.018022 21.580295 -0.000000 -0.000000 0.000000 -0.000000 -0.000000 0.000000 -0.000001 0.000001 0.000000 9.620364 7.223096 -1.888857 2.382866 1.109467 -1.073441 2.401566 1.100696 -1.045856 -0.057994 13.152753 4.536977 8.891160 19.766190 -3.891121 0.000001 -0.000000 -0.000001 0.000001 -0.000000 -0.000001 0.000001 -0.000000 -0.000001 1.183350 3.599420 -8.974600 -53.425504 4.522200 -51.883756 0.000467 -105.213798 0.000454 2.694934 -6.785477 -16.625765 -6.141212 -11.690799 -6.761698 9.914130 42.595512 3.409874 0.000003 -0.000001 0.000000 0.255316 3.378226 -45.814327 5.654100 5.847769 -88.067469 0.000003 0.000000 -0.000005 -0.461476 3.841593 -39.722679 6.450754 5.820355 -95.892864 -0.000000 0.000001 -0.000001 0.469722 4.966822 -39.799447 8.181038 5.368626 -113.502998 -0.000004 0.000003 0.000000 -3.762426 9.063698 -45.253814 5.342548 5.829025 -85.005324 0.000000 -0.000000 -0.000000 0.000001 0.000000 0.000002 3.025168 12.911337 -5.539061 -48.147919 26.895810 84.263559 -0.000059 105.577178 0.000048 -8.085372 17.722253 8.888106 -7.341091 13.749669 7.412325 9.855803 -44.489083 -3.903235 0.000000 -0.000000 0.000000 -0.124366 -2.384796 45.108868 4.500590 -4.654555 88.071143 0.000001 0.000001 0.000005 -0.761617 -2.932907 39.031068 5.133891 -4.632761 95.881629 -0.000001 -0.000001 0.000003 0.154765 -4.068816 39.122675 6.509727 -4.273606 113.462857 -0.000000 0.000001 0.000002 -4.198871 -8.025509 44.637776 4.252918 -4.639650 85.014791 -0.000002 -0.000001 -0.000002 -0.000001 0.000001 -0.000001 -0.000000 -0.000002 0.000001 -0.000000 -0.000002 0.000001 -0.000000 -0.000002 0.000001 -0.000000 -0.000002 0.000001 -0.000000 -0.000002 0.000001 0.000000 -0.000001 -0.000000 -0.000000 -0.000002 0.000001 -0.000000 -0.000002 0.000001 0.000000 -0.000001 -0.000000 -0.000000 -0.000001 -0.000000 -0.000000 -0.000001 -0.000000 0.000000 -0.000001 0.000000 
-0.462180 70.473526 1.059755 -5.135226 -45.718103 0.404149 -0.000000 0.000001 0.000001 -32.747943 7.985200 17.154929 60.014987 -6.175110 3.836048 -24.889915 -9.163431 -14.132131 0.000000 0.000002 -0.000000 0.000000 0.000002 -0.000000 0.000002 0.000003 -0.000000 -25.263830 -10.475976 -29.484096 59.242704 -9.659337 -7.672110 -24.850429 -5.730060 21.525645 -0.000000 -0.000000 0.000001 -0.000000 -0.000000 0.000001 -0.000000 0.000000 0.000000 9.734273 7.262588 -2.029894 2.523093 1.222473 -1.220269 2.544997 1.213390 -1.187301 -0.119666 13.073300 4.516066 8.975793 19.311233 -3.677650 -0.000000 -0.000000 -0.000001 -0.000000 -0.000000 -0.000001 -0.000000 -0.000000 -0.000001 1.271896 3.450421 -9.352721 -53.737698 4.019018 -51.821045 0.000308 -104.376191 0.000290 3.364586 -5.538221 -17.414117 -6.141210 -11.690803 -6.761697 9.914139 42.595512 3.409869 -0.000002 0.000004 -0.000001 0.255315 3.378226 -45.814331 5.654101 5.847767 -88.067469 -0.000001 0.000003 -0.000001 -0.461473 3.841594 -39.722686 6.450755 5.820356 -95.892864 -0.000002 -0.000001 -0.000000 0.469725 4.966823 -39.799451 8.181037 5.368626 -113.502998 -0.000001 0.000001 -0.000000 -3.762424 9.063695 -45.253818 5.342548 5.829023 -85.005324 -0.000000 0.000001 -0.000002 -0.000000 0.000003 -0.000002 3.009246 12.882593 -5.845511 -47.901766 26.454228 85.051647 0.000219 105.041780 -0.000232 -8.061764 17.824031 9.078431 -7.341088 13.749664 7.412329 9.855808 -44.489089 -3.903240 0.000004 -0.000000 0.000001 -0.124365 -2.384800 45.108868 4.500592 -4.654553 88.071150 -0.000001 0.000001 0.000000 -0.761617 -2.932914 39.031068 5.133888 -4.632766 95.881635 -0.000002 0.000001 0.000000 0.154768 -4.068816 39.122675 6.509727 -4.273608 113.462870 -0.000002 -0.000004 -0.000000 -4.198867 -8.025512 44.637783 4.252926 -4.639648 85.014798 0.000002 0.000003 0.000002 0.000003 0.000001 -0.000001 0.000000 -0.000001 0.000000 0.000000 -0.000001 0.000000 0.000000 -0.000001 0.000000 0.000000 -0.000001 0.000000 0.000000 -0.000001 0.000000 -0.000000 -0.000001 -0.000000 0.000000 -0.000001 0.000000 0.000000 -0.000001 0.000000 -0.000000 -0.000001 -0.000000 -0.000000 0.000002 -0.000000 -0.000000 0.000002 -0.000000 -0.000000 0.000001 0.000001 
-0.575242 70.594078 1.456526 -4.689168 -45.240465 0.845630 0.000000 -0.000000 -0.000000 -32.746973 8.194354 17.020886 59.763629 -6.027785 3.592336 -25.028786 -9.910553 -13.920003 -0.000000 -0.000002 0.000000 -0.000000 -0.000002 -0.000000 -0.000003 -0.000002 -0.000001 -25.692300 -10.389940 -30.109530 59.674010 -9.710690 -7.524574 -23.536957 -5.271550 21.186137 0.000000 0.000000 0.000000 0.000000 0.000000 0.000000 -0.000000 -0.000001 -0.000003 9.794220 7.300670 -2.127750 2.594239 1.326391 -1.342160 2.618628 1.318496 -1.304865 -0.089426 12.994038 4.472787 9.137179 18.829713 -3.485248 0.000001 0.000000 0.000001 0.000001 0.000000 0.000001 0.000001 0.000000 0.000001 1.361014 3.142961 -9.684678 -54.368528 3.505243 -51.369935 -0.000311 -103.901787 -0.000313 3.892665 -4.154464 -18.243919 -6.141211 -11.690807 -6.761700 9.914131 42.595519 3.409865 0.000000 0.000005 0.000000 0.255321 3.378223 -45.814334 5.654100 5.847765 -88.067462 -0.000001 -0.000001 -0.000002 -0.461472 3.841589 -39.722686 6.450758 5.820356 -95.892864 0.000002 -0.000000 -0.000002 0.469725 4.966820 -39.799447 8.181037 5.368627 -113.502991 0.000000 -0.000000 0.000001 -3.762421 9.063690 -45.253825 5.342548 5.829025 -85.005324 0.000002 -0.000002 -0.000002 0.000000 0.000003 0.000001 2.995730 13.013993 -6.195493 -48.018153 25.955450 85.661985 0.000237 104.429610 -0.000250 -8.242432 17.789055 9.105802 -7.341090 13.749666 7.412329 9.855804 -44.489096 -3.903230 -0.000002 -0.000001 0.000004 -0.124366 -2.384799 45.108864 4.500591 -4.654553 88.071143 -0.000001 -0.000001 0.000005 -0.761617 -2.932909 39.031065 5.133888 -4.632767 95.881635 -0.000002 -0.000000 -0.000000 0.154764 -4.068819 39.122675 6.509727 -4.273608 113.462863 -0.000001 0.000002 0.000001 -4.198869 -8.025510 44.637783 4.252927 -4.639651 85.014805 0.000000 0.000001 -0.000001 -0.000001 0.000003 -0.000001 0.000000 -0.000000 0.000001 0.000000 -0.000000 0.000001 0.000000 -0.000000 0.000001 0.000000 -0.000000 0.000001 0.000000 -0.000000 0.000001 0.000000 -0.000000 0.000000 0.000000 -0.000000 0.000001 0.000000 -0.000000 0.000001 0.000000 -0.000000 0.000000 0.000000 0.000004 -0.000000 0.000000 0.000004 -0.000000 0.000000 -0.000000 -0.000000 
